# xmcd
#
# Track frame offsets: 
#        150
#        15577
#        30899
#        60035
#        82964
#        99213
#
# Disc length: 1496 seconds
#
# Revision: 0
# Processed by: cddbd v1.5.2PL0 Copyright (c) Steve Scherf et al.
# Submitted via: ExactAudioCopy v1.3
#
DISCID=2905d606
DTITLE=Amanda Webb Band - Demon St Rations
DYEAR=2019
DGENRE=Blues Rock
TTITLE0=Fill Your Cup
TTITLE1=Jeffro's Blues
TTITLE2=Twilight
TTITLE3=Survivor
TTITLE4=Long Pour
TTITLE5=Bartender
EXTD=
EXTT0=
EXTT1=
EXTT2=
EXTT3=
EXTT4=
EXTT5=
PLAYORDER=
